<svg width="33" height="33" viewBox="0 0 33 33" fill="none" xmlns="http://www.w3.org/2000/svg">
<rect width="33" height="33" rx="8.01021" fill="#E8F0F1"/>
<path d="M10.7385 12.7401C10.4513 12.7531 10.249 12.7792 10.1316 12.8184C10.0141 12.8575 9.93576 12.9293 9.8966 13.0338C9.85744 13.1382 9.83786 13.3144 9.83786 13.5624V17.7133C9.83786 17.9613 9.85744 18.1375 9.8966 18.2419C9.93576 18.3463 10.0141 18.4181 10.1316 18.4573C10.249 18.4964 10.4513 18.5226 10.7385 18.5356V18.9664H7.52747V18.5356C7.81464 18.5226 8.01696 18.4964 8.13444 18.4573C8.25192 18.4181 8.33023 18.3463 8.36939 18.2419C8.40855 18.1375 8.42813 17.9613 8.42813 17.7133V15.863H5.72616V17.7133C5.72616 17.9613 5.74574 18.1375 5.78489 18.2419C5.82405 18.3463 5.90237 18.4181 6.01985 18.4573C6.13733 18.4964 6.33965 18.5226 6.62681 18.5356V18.9664H3.41577V18.5356C3.70294 18.5226 3.90526 18.4964 4.02274 18.4573C4.14021 18.4181 4.21853 18.3463 4.25769 18.2419C4.29685 18.1375 4.31643 17.9613 4.31643 17.7133V13.5624C4.31643 13.3144 4.29685 13.1382 4.25769 13.0338C4.21853 12.9293 4.14021 12.8575 4.02274 12.8184C3.90526 12.7792 3.70294 12.7531 3.41577 12.7401V12.3093H6.62681V12.7401C6.33965 12.7531 6.13733 12.7792 6.01985 12.8184C5.90237 12.8575 5.82405 12.9293 5.78489 13.0338C5.74574 13.1382 5.72616 13.3144 5.72616 13.5624V15.2365H8.42813V13.5624C8.42813 13.3144 8.40855 13.1382 8.36939 13.0338C8.33023 12.9293 8.25192 12.8575 8.13444 12.8184C8.01696 12.7792 7.81464 12.7531 7.52747 12.7401V12.3093H10.7385V12.7401Z" fill="#163B3B"/>
<path d="M15.841 17.9286C15.7888 18.3333 15.6811 18.6237 15.5179 18.7999C15.3613 18.9761 15.1328 19.0643 14.8326 19.0643C14.5585 19.0643 14.3366 18.9957 14.1669 18.8587C13.9972 18.7216 13.883 18.5226 13.8243 18.2615C13.5502 18.8228 13.1292 19.1034 12.5614 19.1034C12.1894 19.1034 11.899 19.0153 11.6901 18.8391C11.4878 18.6563 11.3866 18.4018 11.3866 18.0755C11.3866 17.7818 11.4845 17.5338 11.6803 17.3315C11.8826 17.1226 12.1894 16.9529 12.6006 16.8224L13.7851 16.4406V15.9903C13.7851 15.6639 13.7003 15.4127 13.5306 15.2365C13.3674 15.0537 13.1325 14.9623 12.8257 14.9623C12.5581 14.9623 12.3264 15.008 12.1307 15.0994C12.1437 15.1712 12.1665 15.2332 12.1992 15.2854C12.2383 15.3376 12.2938 15.4029 12.3656 15.4812C12.4439 15.5595 12.5027 15.6346 12.5418 15.7064C12.5875 15.7782 12.6103 15.863 12.6103 15.9609C12.6103 16.1502 12.5386 16.3101 12.395 16.4406C12.2579 16.5711 12.0882 16.6364 11.8859 16.6364C11.6771 16.6364 11.5074 16.5613 11.3768 16.4112C11.2463 16.2611 11.181 16.0686 11.181 15.8336C11.181 15.5465 11.2789 15.2789 11.4747 15.0309C11.6771 14.7829 11.9446 14.5838 12.2775 14.4337C12.6103 14.2836 12.9628 14.2085 13.3348 14.2085C13.8765 14.2085 14.2975 14.3456 14.5977 14.6197C14.8979 14.8938 15.048 15.2887 15.048 15.8043V17.8405C15.048 18.0298 15.1231 18.1244 15.2732 18.1244C15.3384 18.1244 15.3906 18.1049 15.4298 18.0657C15.469 18.0265 15.5016 17.9547 15.5277 17.8503L15.841 17.9286ZM13.0607 18.2028C13.3217 18.2028 13.5632 18.0657 13.7851 17.7916V16.9595L13.1879 17.1846C12.9922 17.2564 12.8486 17.338 12.7572 17.4294C12.6658 17.5207 12.6201 17.6284 12.6201 17.7524C12.6201 17.896 12.656 18.007 12.7278 18.0853C12.8061 18.1636 12.9171 18.2028 13.0607 18.2028Z" fill="#163B3B"/>
<path d="M19.2464 14.2085C19.8273 14.2085 20.2809 14.4174 20.6072 14.8351C20.9335 15.2528 21.0967 15.8238 21.0967 16.5483C21.0967 17.351 20.8944 17.9776 20.4897 18.4279C20.0851 18.8782 19.5336 19.1034 18.8353 19.1034C18.411 19.1034 18.0586 19.0186 17.778 18.8489V19.8083C17.778 20.0237 17.8008 20.1836 17.8465 20.288C17.8987 20.3924 17.9901 20.4642 18.1206 20.5034C18.2577 20.549 18.4763 20.5849 18.7765 20.611V20.983H15.9375V20.611C16.1072 20.5849 16.2312 20.549 16.3095 20.5034C16.3878 20.4642 16.44 20.3924 16.4661 20.288C16.4922 20.1901 16.5053 20.0302 16.5053 19.8083V15.8141C16.5053 15.5334 16.4661 15.3474 16.3878 15.256C16.316 15.1647 16.1659 15.119 15.9375 15.119V14.747L17.3864 14.2673H17.778V15.1483C17.9477 14.8677 18.1565 14.6425 18.4045 14.4729C18.6525 14.2966 18.9332 14.2085 19.2464 14.2085ZM18.6688 18.4671C18.9821 18.4671 19.2269 18.33 19.4031 18.0559C19.5793 17.7818 19.6674 17.4 19.6674 16.9105C19.6674 16.408 19.576 16.0131 19.3933 15.7259C19.2171 15.4388 18.9625 15.2952 18.6297 15.2952C18.2772 15.2952 17.9933 15.3866 17.778 15.5693V17.1748C17.778 18.0363 18.0749 18.4671 18.6688 18.4671Z" fill="#163B3B"/>
<path d="M24.7532 14.2085C25.334 14.2085 25.7876 14.4174 26.114 14.8351C26.4403 15.2528 26.6034 15.8238 26.6034 16.5483C26.6034 17.351 26.4011 17.9776 25.9965 18.4279C25.5918 18.8782 25.0403 19.1034 24.342 19.1034C23.9178 19.1034 23.5653 19.0186 23.2847 18.8489V19.8083C23.2847 20.0237 23.3076 20.1836 23.3532 20.288C23.4055 20.3924 23.4968 20.4642 23.6274 20.5034C23.7644 20.549 23.983 20.5849 24.2833 20.611V20.983H21.4442V20.611C21.6139 20.5849 21.7379 20.549 21.8162 20.5034C21.8946 20.4642 21.9468 20.3924 21.9729 20.288C21.999 20.1901 22.012 20.0302 22.012 19.8083V15.8141C22.012 15.5334 21.9729 15.3474 21.8946 15.256C21.8228 15.1647 21.6727 15.119 21.4442 15.119V14.747L22.8931 14.2673H23.2847V15.1483C23.4544 14.8677 23.6632 14.6425 23.9113 14.4729C24.1593 14.2966 24.4399 14.2085 24.7532 14.2085ZM24.1756 18.4671C24.4889 18.4671 24.7336 18.33 24.9098 18.0559C25.086 17.7818 25.1741 17.4 25.1741 16.9105C25.1741 16.408 25.0828 16.0131 24.9 15.7259C24.7238 15.4388 24.4693 15.2952 24.1364 15.2952C23.784 15.2952 23.5001 15.3866 23.2847 15.5693V17.1748C23.2847 18.0363 23.5817 18.4671 24.1756 18.4671Z" fill="#163B3B"/>
<path d="M28.9187 17.6545C28.9187 17.9091 28.9448 18.1016 28.997 18.2321C29.0493 18.3561 29.1178 18.441 29.2026 18.4867C29.294 18.5323 29.4213 18.5682 29.5844 18.5943V18.9664H26.9999V18.5943C27.2022 18.5682 27.3458 18.5323 27.4307 18.4867C27.5155 18.441 27.571 18.3594 27.5971 18.2419C27.6297 18.1244 27.646 17.9286 27.646 17.6545V13.5918C27.646 13.3372 27.6069 13.1676 27.5286 13.0827C27.4568 12.9979 27.3067 12.9554 27.0782 12.9554V12.5443L28.5271 12.0156H28.9187V17.6545Z" fill="#163B3B"/>
</svg>
